<svg width="278" height="60" viewBox="0 0 278 60" fill="none" xmlns="http://www.w3.org/2000/svg">
<path d="M67.82 40V25.272H70.676L70.956 27.232H71.152C71.4693 26.784 71.8333 26.392 72.244 26.056C72.6547 25.7013 73.1213 25.4307 73.644 25.244C74.1853 25.0387 74.7733 24.936 75.408 24.936C76.2667 24.936 77.032 25.1133 77.704 25.468C78.376 25.8227 78.8987 26.4107 79.272 27.232H79.468C79.7853 26.784 80.1587 26.392 80.588 26.056C81.0173 25.7013 81.512 25.4307 82.072 25.244C82.632 25.0387 83.2387 24.936 83.892 24.936C84.7693 24.936 85.544 25.0947 86.216 25.412C86.888 25.7293 87.42 26.252 87.812 26.98C88.204 27.708 88.4 28.6787 88.4 29.892V40H84.984V30.592C84.984 30.088 84.928 29.668 84.816 29.332C84.704 28.9773 84.5453 28.7067 84.34 28.52C84.1533 28.3147 83.9107 28.1653 83.612 28.072C83.332 27.9787 83.024 27.932 82.688 27.932C82.1467 27.932 81.6613 28.0813 81.232 28.38C80.8027 28.6787 80.4573 29.0893 80.196 29.612C79.9533 30.1347 79.832 30.7413 79.832 31.432V40H76.416V30.592C76.416 30.088 76.36 29.668 76.248 29.332C76.136 28.9773 75.9773 28.7067 75.772 28.52C75.5853 28.3147 75.3427 28.1653 75.044 28.072C74.764 27.9787 74.456 27.932 74.12 27.932C73.5787 27.932 73.084 28.0813 72.636 28.38C72.2067 28.6787 71.8613 29.0893 71.6 29.612C71.3573 30.1347 71.236 30.7413 71.236 31.432V40H67.82Z" fill="#1D293D"/>
<path d="M94.5972 40.336C94.1865 40.336 93.7105 40.28 93.1692 40.168C92.6465 40.0747 92.1332 39.888 91.6292 39.608C91.1439 39.328 90.7425 38.9173 90.4252 38.376C90.1079 37.816 89.9492 37.088 89.9492 36.192C89.9492 35.184 90.1732 34.3533 90.6212 33.7C91.0692 33.028 91.6945 32.5053 92.4972 32.132C93.3185 31.74 94.2892 31.4693 95.4092 31.32C96.5479 31.152 97.7892 31.068 99.1332 31.068V29.864C99.1332 29.4347 99.0679 29.052 98.9372 28.716C98.8065 28.38 98.5639 28.1187 98.2092 27.932C97.8732 27.7267 97.3599 27.624 96.6692 27.624C95.9785 27.624 95.4372 27.708 95.0452 27.876C94.6532 28.044 94.3825 28.2493 94.2332 28.492C94.0839 28.7347 94.0092 28.9867 94.0092 29.248V29.64H90.7052C90.6865 29.5467 90.6772 29.4533 90.6772 29.36C90.6772 29.2667 90.6772 29.1547 90.6772 29.024C90.6772 28.184 90.9292 27.456 91.4332 26.84C91.9372 26.224 92.6372 25.7573 93.5332 25.44C94.4292 25.104 95.4652 24.936 96.6412 24.936C97.9852 24.936 99.0865 25.1227 99.9452 25.496C100.823 25.8693 101.476 26.4013 101.905 27.092C102.335 27.7827 102.549 28.6227 102.549 29.612V36.556C102.549 36.9107 102.652 37.1627 102.857 37.312C103.063 37.4613 103.287 37.536 103.529 37.536H104.425V39.888C104.239 39.9627 103.968 40.0467 103.613 40.14C103.259 40.252 102.82 40.308 102.297 40.308C101.812 40.308 101.373 40.224 100.981 40.056C100.608 39.9067 100.291 39.6827 100.029 39.384C99.7679 39.0853 99.5812 38.7307 99.4692 38.32H99.3012C98.9839 38.712 98.6012 39.0667 98.1532 39.384C97.7239 39.6827 97.2105 39.916 96.6132 40.084C96.0345 40.252 95.3625 40.336 94.5972 40.336ZM95.6332 37.536C96.1932 37.536 96.6879 37.452 97.1172 37.284C97.5652 37.116 97.9292 36.8827 98.2092 36.584C98.5079 36.2853 98.7319 35.9213 98.8812 35.492C99.0492 35.0627 99.1332 34.596 99.1332 34.092V33.42C98.1065 33.42 97.1545 33.4853 96.2772 33.616C95.4185 33.7467 94.7279 33.9893 94.2052 34.344C93.7012 34.6987 93.4492 35.2027 93.4492 35.856C93.4492 36.192 93.5239 36.4907 93.6732 36.752C93.8412 36.9947 94.0839 37.1907 94.4012 37.34C94.7372 37.4707 95.1479 37.536 95.6332 37.536Z" fill="#1D293D"/>
<path d="M105.256 40V25.272H108.112L108.392 27.596H108.588C108.774 27.1293 108.998 26.7 109.26 26.308C109.54 25.8973 109.894 25.5707 110.324 25.328C110.753 25.0667 111.276 24.936 111.892 24.936C112.19 24.936 112.461 24.964 112.704 25.02C112.965 25.076 113.161 25.132 113.292 25.188V28.408H112.256C111.677 28.408 111.164 28.492 110.716 28.66C110.268 28.8093 109.885 29.052 109.568 29.388C109.269 29.724 109.045 30.144 108.896 30.648C108.746 31.152 108.672 31.74 108.672 32.412V40H105.256Z" fill="#1D293D"/>
<path d="M120.139 40.336C118.608 40.336 117.33 40.0653 116.303 39.524C115.295 38.964 114.539 38.1147 114.035 36.976C113.531 35.8373 113.279 34.3907 113.279 32.636C113.279 30.8627 113.531 29.416 114.035 28.296C114.558 27.1573 115.323 26.3173 116.331 25.776C117.358 25.216 118.627 24.936 120.139 24.936C121.128 24.936 122.006 25.0573 122.771 25.3C123.536 25.5427 124.19 25.916 124.731 26.42C125.291 26.9053 125.711 27.512 125.991 28.24C126.271 28.968 126.411 29.8173 126.411 30.788H122.939C122.939 30.0973 122.836 29.528 122.631 29.08C122.426 28.632 122.108 28.296 121.679 28.072C121.268 27.8293 120.736 27.708 120.083 27.708C119.318 27.708 118.692 27.8853 118.207 28.24C117.722 28.5947 117.358 29.1267 117.115 29.836C116.891 30.5267 116.779 31.404 116.779 32.468V32.832C116.779 33.8773 116.891 34.7547 117.115 35.464C117.358 36.1733 117.731 36.7053 118.235 37.06C118.739 37.396 119.402 37.564 120.223 37.564C120.858 37.564 121.38 37.452 121.791 37.228C122.22 36.9853 122.547 36.6307 122.771 36.164C122.995 35.6973 123.107 35.1373 123.107 34.484H126.411C126.411 35.3987 126.271 36.22 125.991 36.948C125.711 37.676 125.3 38.292 124.759 38.796C124.218 39.3 123.555 39.6827 122.771 39.944C122.006 40.2053 121.128 40.336 120.139 40.336Z" fill="#1D293D"/>
<path d="M134.527 40.336C132.959 40.336 131.653 40.0653 130.607 39.524C129.562 38.964 128.778 38.1147 128.255 36.976C127.733 35.8373 127.471 34.3907 127.471 32.636C127.471 30.8627 127.733 29.416 128.255 28.296C128.778 27.1573 129.562 26.3173 130.607 25.776C131.653 25.216 132.959 24.936 134.527 24.936C135.946 24.936 137.131 25.2067 138.083 25.748C139.054 26.2707 139.782 27.0827 140.267 28.184C140.753 29.2853 140.995 30.7133 140.995 32.468V33.476H130.971C131.009 34.3907 131.149 35.1653 131.391 35.8C131.634 36.416 132.007 36.8827 132.511 37.2C133.034 37.4987 133.715 37.648 134.555 37.648C134.985 37.648 135.386 37.592 135.759 37.48C136.133 37.368 136.459 37.2 136.739 36.976C137.019 36.7333 137.234 36.4347 137.383 36.08C137.551 35.7253 137.635 35.3147 137.635 34.848H140.995C140.995 35.7813 140.827 36.5933 140.491 37.284C140.174 37.9747 139.717 38.544 139.119 38.992C138.541 39.44 137.859 39.776 137.075 40C136.291 40.224 135.442 40.336 134.527 40.336ZM131.027 31.068H137.439C137.439 30.452 137.365 29.9293 137.215 29.5C137.085 29.0707 136.889 28.716 136.627 28.436C136.385 28.156 136.086 27.96 135.731 27.848C135.377 27.7173 134.975 27.652 134.527 27.652C133.799 27.652 133.183 27.7733 132.679 28.016C132.194 28.2587 131.821 28.632 131.559 29.136C131.298 29.64 131.121 30.284 131.027 31.068Z" fill="#1D293D"/>
<path d="M142.775 40V25.272H145.631L145.911 27.232H146.107C146.443 26.784 146.835 26.392 147.283 26.056C147.749 25.7013 148.272 25.4307 148.851 25.244C149.448 25.0387 150.101 24.936 150.811 24.936C151.744 24.936 152.565 25.104 153.275 25.44C154.003 25.776 154.572 26.3173 154.983 27.064C155.393 27.8107 155.599 28.8093 155.599 30.06V40H152.155V30.676C152.155 30.1533 152.089 29.724 151.959 29.388C151.847 29.0333 151.669 28.7533 151.427 28.548C151.203 28.324 150.923 28.1653 150.587 28.072C150.251 27.9787 149.877 27.932 149.467 27.932C148.851 27.932 148.291 28.0813 147.787 28.38C147.301 28.6787 146.909 29.0893 146.611 29.612C146.331 30.1347 146.191 30.7413 146.191 31.432V40H142.775Z" fill="#1D293D"/>
<path d="M161.786 40.336C161.376 40.336 160.9 40.28 160.358 40.168C159.836 40.0747 159.322 39.888 158.818 39.608C158.333 39.328 157.932 38.9173 157.614 38.376C157.297 37.816 157.138 37.088 157.138 36.192C157.138 35.184 157.362 34.3533 157.81 33.7C158.258 33.028 158.884 32.5053 159.686 32.132C160.508 31.74 161.478 31.4693 162.598 31.32C163.737 31.152 164.978 31.068 166.322 31.068V29.864C166.322 29.4347 166.257 29.052 166.126 28.716C165.996 28.38 165.753 28.1187 165.398 27.932C165.062 27.7267 164.549 27.624 163.858 27.624C163.168 27.624 162.626 27.708 162.234 27.876C161.842 28.044 161.572 28.2493 161.422 28.492C161.273 28.7347 161.198 28.9867 161.198 29.248V29.64H157.894C157.876 29.5467 157.866 29.4533 157.866 29.36C157.866 29.2667 157.866 29.1547 157.866 29.024C157.866 28.184 158.118 27.456 158.622 26.84C159.126 26.224 159.826 25.7573 160.722 25.44C161.618 25.104 162.654 24.936 163.83 24.936C165.174 24.936 166.276 25.1227 167.134 25.496C168.012 25.8693 168.665 26.4013 169.094 27.092C169.524 27.7827 169.738 28.6227 169.738 29.612V36.556C169.738 36.9107 169.841 37.1627 170.046 37.312C170.252 37.4613 170.476 37.536 170.718 37.536H171.614V39.888C171.428 39.9627 171.157 40.0467 170.802 40.14C170.448 40.252 170.009 40.308 169.486 40.308C169.001 40.308 168.562 40.224 168.17 40.056C167.797 39.9067 167.48 39.6827 167.218 39.384C166.957 39.0853 166.77 38.7307 166.658 38.32H166.49C166.173 38.712 165.79 39.0667 165.342 39.384C164.913 39.6827 164.4 39.916 163.802 40.084C163.224 40.252 162.552 40.336 161.786 40.336ZM162.822 37.536C163.382 37.536 163.877 37.452 164.306 37.284C164.754 37.116 165.118 36.8827 165.398 36.584C165.697 36.2853 165.921 35.9213 166.07 35.492C166.238 35.0627 166.322 34.596 166.322 34.092V33.42C165.296 33.42 164.344 33.4853 163.466 33.616C162.608 33.7467 161.917 33.9893 161.394 34.344C160.89 34.6987 160.638 35.2027 160.638 35.856C160.638 36.192 160.713 36.4907 160.862 36.752C161.03 36.9947 161.273 37.1907 161.59 37.34C161.926 37.4707 162.337 37.536 162.822 37.536Z" fill="#1D293D"/>
<path d="M172.445 40V25.272H175.301L175.581 27.596H175.777C175.964 27.1293 176.188 26.7 176.449 26.308C176.729 25.8973 177.084 25.5707 177.513 25.328C177.942 25.0667 178.465 24.936 179.081 24.936C179.38 24.936 179.65 24.964 179.893 25.02C180.154 25.076 180.35 25.132 180.481 25.188V28.408H179.445C178.866 28.408 178.353 28.492 177.905 28.66C177.457 28.8093 177.074 29.052 176.757 29.388C176.458 29.724 176.234 30.144 176.085 30.648C175.936 31.152 175.861 31.74 175.861 32.412V40H172.445Z" fill="#1D293D"/>
<path d="M181.469 23.004V19.756H184.885V23.004H181.469ZM181.469 40V25.272H184.885V40H181.469Z" fill="#1D293D"/>
<path d="M191.184 40.336C190.773 40.336 190.297 40.28 189.756 40.168C189.233 40.0747 188.72 39.888 188.216 39.608C187.731 39.328 187.329 38.9173 187.012 38.376C186.695 37.816 186.536 37.088 186.536 36.192C186.536 35.184 186.76 34.3533 187.208 33.7C187.656 33.028 188.281 32.5053 189.084 32.132C189.905 31.74 190.876 31.4693 191.996 31.32C193.135 31.152 194.376 31.068 195.72 31.068V29.864C195.72 29.4347 195.655 29.052 195.524 28.716C195.393 28.38 195.151 28.1187 194.796 27.932C194.46 27.7267 193.947 27.624 193.256 27.624C192.565 27.624 192.024 27.708 191.632 27.876C191.24 28.044 190.969 28.2493 190.82 28.492C190.671 28.7347 190.596 28.9867 190.596 29.248V29.64H187.292C187.273 29.5467 187.264 29.4533 187.264 29.36C187.264 29.2667 187.264 29.1547 187.264 29.024C187.264 28.184 187.516 27.456 188.02 26.84C188.524 26.224 189.224 25.7573 190.12 25.44C191.016 25.104 192.052 24.936 193.228 24.936C194.572 24.936 195.673 25.1227 196.532 25.496C197.409 25.8693 198.063 26.4013 198.492 27.092C198.921 27.7827 199.136 28.6227 199.136 29.612V36.556C199.136 36.9107 199.239 37.1627 199.444 37.312C199.649 37.4613 199.873 37.536 200.116 37.536H201.012V39.888C200.825 39.9627 200.555 40.0467 200.2 40.14C199.845 40.252 199.407 40.308 198.884 40.308C198.399 40.308 197.96 40.224 197.568 40.056C197.195 39.9067 196.877 39.6827 196.616 39.384C196.355 39.0853 196.168 38.7307 196.056 38.32H195.888C195.571 38.712 195.188 39.0667 194.74 39.384C194.311 39.6827 193.797 39.916 193.2 40.084C192.621 40.252 191.949 40.336 191.184 40.336ZM192.22 37.536C192.78 37.536 193.275 37.452 193.704 37.284C194.152 37.116 194.516 36.8827 194.796 36.584C195.095 36.2853 195.319 35.9213 195.468 35.492C195.636 35.0627 195.72 34.596 195.72 34.092V33.42C194.693 33.42 193.741 33.4853 192.864 33.616C192.005 33.7467 191.315 33.9893 190.792 34.344C190.288 34.6987 190.036 35.2027 190.036 35.856C190.036 36.192 190.111 36.4907 190.26 36.752C190.428 36.9947 190.671 37.1907 190.988 37.34C191.324 37.4707 191.735 37.536 192.22 37.536Z" fill="#1D293D"/>
<path d="M211.452 40.336C210.257 40.336 209.221 40.0653 208.344 39.524C207.467 38.9827 206.785 38.1427 206.3 37.004C205.833 35.8653 205.6 34.4 205.6 32.608C205.6 30.8347 205.843 29.388 206.328 28.268C206.813 27.1293 207.485 26.2893 208.344 25.748C209.203 25.2067 210.173 24.936 211.256 24.936C211.928 24.936 212.544 25.0107 213.104 25.16C213.664 25.3093 214.159 25.5427 214.588 25.86C215.017 26.1587 215.381 26.532 215.68 26.98H215.848V19.756H219.264V40H216.436L216.156 38.04H215.96C215.493 38.8053 214.859 39.384 214.056 39.776C213.272 40.1493 212.404 40.336 211.452 40.336ZM212.516 37.396C213.3 37.396 213.935 37.2187 214.42 36.864C214.905 36.5093 215.26 35.996 215.484 35.324C215.727 34.652 215.848 33.8307 215.848 32.86V32.496C215.848 31.768 215.783 31.1147 215.652 30.536C215.521 29.9573 215.316 29.472 215.036 29.08C214.775 28.688 214.429 28.3893 214 28.184C213.589 27.9787 213.095 27.876 212.516 27.876C211.676 27.876 211.004 28.044 210.5 28.38C210.015 28.6973 209.66 29.2013 209.436 29.892C209.231 30.564 209.128 31.4227 209.128 32.468V32.86C209.128 33.8867 209.231 34.736 209.436 35.408C209.66 36.08 210.015 36.584 210.5 36.92C211.004 37.2373 211.676 37.396 212.516 37.396Z" fill="white"/>
<path d="M221.778 23.004V19.756H225.194V23.004H221.778ZM221.778 40V25.272H225.194V40H221.778Z" fill="white"/>
<path d="M230.149 45.096C229.496 45.096 228.88 44.9653 228.301 44.704C227.722 44.4427 227.256 44.0507 226.901 43.528C226.546 43.024 226.369 42.3987 226.369 41.652C226.369 40.8307 226.602 40.1867 227.069 39.72C227.554 39.2347 228.086 38.8707 228.665 38.628C228.236 38.404 227.881 38.1053 227.601 37.732C227.34 37.3587 227.209 36.9107 227.209 36.388C227.209 35.6787 227.47 35.1187 227.993 34.708C228.516 34.2787 229.113 33.9987 229.785 33.868C229.094 33.4387 228.562 32.888 228.189 32.216C227.834 31.544 227.657 30.7787 227.657 29.92C227.657 28.8933 227.9 28.016 228.385 27.288C228.889 26.5413 229.617 25.9627 230.569 25.552C231.521 25.1413 232.669 24.936 234.013 24.936C234.554 24.936 235.077 24.9733 235.581 25.048C236.085 25.1227 236.542 25.2347 236.953 25.384C237.606 24.992 238.054 24.5533 238.297 24.068C238.54 23.564 238.67 23.1533 238.689 22.836H242.021C242.021 23.4893 241.89 24.068 241.629 24.572C241.386 25.076 241.041 25.496 240.593 25.832C240.145 26.1493 239.604 26.3827 238.969 26.532C239.436 26.9427 239.79 27.4373 240.033 28.016C240.276 28.5947 240.397 29.2293 240.397 29.92C240.397 30.9467 240.154 31.8333 239.669 32.58C239.202 33.3267 238.502 33.9053 237.569 34.316C236.654 34.7267 235.525 34.932 234.181 34.932H231.913C231.521 34.932 231.213 35.016 230.989 35.184C230.784 35.352 230.681 35.5853 230.681 35.884C230.681 36.1267 230.774 36.3413 230.961 36.528C231.166 36.7147 231.446 36.808 231.801 36.808H238.241C239.342 36.808 240.248 37.172 240.957 37.9C241.685 38.6093 242.049 39.524 242.049 40.644C242.049 41.484 241.825 42.24 241.377 42.912C240.948 43.584 240.341 44.116 239.557 44.508C238.773 44.9 237.858 45.096 236.813 45.096H230.149ZM231.381 42.632H236.785C237.14 42.632 237.448 42.5667 237.709 42.436C237.989 42.324 238.204 42.156 238.353 41.932C238.521 41.708 238.605 41.456 238.605 41.176C238.605 40.6907 238.446 40.3267 238.129 40.084C237.83 39.8413 237.457 39.72 237.009 39.72H231.381C230.933 39.72 230.56 39.8507 230.261 40.112C229.962 40.392 229.813 40.7467 229.813 41.176C229.813 41.6053 229.953 41.9507 230.233 42.212C230.532 42.492 230.914 42.632 231.381 42.632ZM234.041 32.524C235.03 32.524 235.768 32.3 236.253 31.852C236.757 31.3853 237.009 30.7413 237.009 29.92C237.009 29.0987 236.757 28.464 236.253 28.016C235.768 27.568 235.03 27.344 234.041 27.344C233.052 27.344 232.305 27.568 231.801 28.016C231.316 28.464 231.073 29.0987 231.073 29.92C231.073 30.4613 231.176 30.928 231.381 31.32C231.605 31.712 231.932 32.0107 232.361 32.216C232.809 32.4213 233.369 32.524 234.041 32.524Z" fill="white"/>
<path d="M243.136 23.004V19.756H246.552V23.004H243.136ZM243.136 40V25.272H246.552V40H243.136Z" fill="white"/>
<path d="M252.963 40.336C252.048 40.336 251.329 40.1587 250.807 39.804C250.284 39.4307 249.911 38.964 249.687 38.404C249.481 37.8253 249.379 37.2373 249.379 36.64V28.072H247.615V25.272H249.463L250.079 21.156H252.795V25.272H255.343V28.072H252.795V36.304C252.795 36.696 252.897 37.004 253.103 37.228C253.308 37.4333 253.616 37.536 254.027 37.536H255.343V39.888C255.156 39.9627 254.923 40.028 254.643 40.084C254.381 40.1587 254.101 40.2147 253.803 40.252C253.504 40.308 253.224 40.336 252.963 40.336Z" fill="white"/>
<path d="M260.535 40.336C260.125 40.336 259.649 40.28 259.107 40.168C258.585 40.0747 258.071 39.888 257.567 39.608C257.082 39.328 256.681 38.9173 256.363 38.376C256.046 37.816 255.887 37.088 255.887 36.192C255.887 35.184 256.111 34.3533 256.559 33.7C257.007 33.028 257.633 32.5053 258.435 32.132C259.257 31.74 260.227 31.4693 261.347 31.32C262.486 31.152 263.727 31.068 265.071 31.068V29.864C265.071 29.4347 265.006 29.052 264.875 28.716C264.745 28.38 264.502 28.1187 264.147 27.932C263.811 27.7267 263.298 27.624 262.607 27.624C261.917 27.624 261.375 27.708 260.983 27.876C260.591 28.044 260.321 28.2493 260.171 28.492C260.022 28.7347 259.947 28.9867 259.947 29.248V29.64H256.643C256.625 29.5467 256.615 29.4533 256.615 29.36C256.615 29.2667 256.615 29.1547 256.615 29.024C256.615 28.184 256.867 27.456 257.371 26.84C257.875 26.224 258.575 25.7573 259.471 25.44C260.367 25.104 261.403 24.936 262.579 24.936C263.923 24.936 265.025 25.1227 265.883 25.496C266.761 25.8693 267.414 26.4013 267.843 27.092C268.273 27.7827 268.487 28.6227 268.487 29.612V36.556C268.487 36.9107 268.59 37.1627 268.795 37.312C269.001 37.4613 269.225 37.536 269.467 37.536H270.363V39.888C270.177 39.9627 269.906 40.0467 269.551 40.14C269.197 40.252 268.758 40.308 268.235 40.308C267.75 40.308 267.311 40.224 266.919 40.056C266.546 39.9067 266.229 39.6827 265.967 39.384C265.706 39.0853 265.519 38.7307 265.407 38.32H265.239C264.922 38.712 264.539 39.0667 264.091 39.384C263.662 39.6827 263.149 39.916 262.551 40.084C261.973 40.252 261.301 40.336 260.535 40.336ZM261.571 37.536C262.131 37.536 262.626 37.452 263.055 37.284C263.503 37.116 263.867 36.8827 264.147 36.584C264.446 36.2853 264.67 35.9213 264.819 35.492C264.987 35.0627 265.071 34.596 265.071 34.092V33.42C264.045 33.42 263.093 33.4853 262.215 33.616C261.357 33.7467 260.666 33.9893 260.143 34.344C259.639 34.6987 259.387 35.2027 259.387 35.856C259.387 36.192 259.462 36.4907 259.611 36.752C259.779 36.9947 260.022 37.1907 260.339 37.34C260.675 37.4707 261.086 37.536 261.571 37.536Z" fill="white"/>
<path d="M271.194 40V19.756H274.61V40H271.194Z" fill="white"/>
<circle cx="33" cy="30" r="28" fill="#1D293D"/>
<path d="M42.9721 16H23.0273C19.704 16 17 18.7603 17 22.1529V37.8471C17 41.2397 19.704 44 23.0273 44H34.2854C34.8377 44 35.2854 43.5523 35.2854 43V40.3334C35.2854 39.7811 34.8377 39.3334 34.2854 39.3334H23.0273C22.2245 39.3334 21.5713 38.6667 21.5713 37.8471V22.1529C21.5713 21.3333 22.2245 20.6666 23.0273 20.6666H42.9727C43.7755 20.6666 44.4287 21.3333 44.4287 22.1529V38.1662C44.4287 38.8096 43.9161 39.3328 43.2858 39.3328C42.6555 39.3328 42.143 38.8096 42.143 38.1662V25.524C42.143 25.1141 41.8928 24.7456 41.5117 24.5945L38.9404 23.5744C38.2839 23.3139 37.5716 23.7976 37.5716 24.5039V38.1668C37.5716 41.3832 40.135 44 43.2858 44C46.4366 44 49 41.3832 49 38.1668V22.1529C49 18.7603 46.2955 16 42.9721 16Z" fill="white"/>
<path d="M23.8564 36.0002C23.8567 36.5522 24.3044 36.9996 24.8564 36.9996H27.4284C27.9806 36.9996 28.4284 36.5519 28.4284 35.9996V28.2737L30.714 27.3643V35.9996C30.714 36.5519 31.1617 36.9996 31.714 36.9996H34.2854C34.8377 36.9996 35.2854 36.5519 35.2854 35.9996V24.5046C35.2854 23.7982 34.5727 23.3145 33.9162 23.5753L24.4825 27.3229C24.1015 27.4743 23.8515 27.8429 23.8517 28.2529L23.8564 36.0002Z" fill="white"/>
</svg>
